<svg width="24" height="24" viewBox="0 0 24 24" fill="none" xmlns="http://www.w3.org/2000/svg">
  <svg x="2" y="2" width="20" height="20" viewBox="0 0 20 20">
    <path fill-rule="evenodd" clip-rule="evenodd" d="M8.06269 1.1722C8.56613 0.152477 9.8415 -0.28516 10.9113 0.194709C11.2976 0.368005 11.6193 0.646729 11.8369 0.993383L11.9368 1.1722L19.7957 17.0905C20.2992 18.1102 19.84 19.3259 18.7702 19.8058C18.5421 19.9081 18.2973 19.971 18.0471 19.9921L17.8587 20H2.14082C0.958479 20 0 19.0864 0 17.9594C0 17.7191 0.0445299 17.4812 0.131046 17.2564L0.203766 17.0905L8.06269 1.1722Z" fill="var(--sc-color-icon-warning)"/>
  </svg>
  <svg x="11.25" y="7.25" width="1.5" height="11.6" viewBox="0 0 1.5 11.6">
    <path d="M0.75 7.75V0.75M0.75 10.85V10.75" stroke="var(--sc-color-icon-inverse)" stroke-width="1.5" stroke-linecap="round"/>
  </svg>
</svg>
