<svg preserveAspectRatio="none" width="100%" height="100%" overflow="visible" style="display: block;" viewBox="0 0 48 48" fill="none" xmlns="http://www.w3.org/2000/svg">
<g id="Mark" clip-path="url(#clip0_72270_189538)">
<path id="Bottom" d="M32 16H0V44C0 46.2091 1.79086 48 4 48H32C40.8366 48 48 40.8366 48 32C48 23.1634 40.8366 16 32 16Z" fill="var(--fill-0, #5A76FF)" style="fill:#5A76FF;fill:color(display-p3 0.3529 0.4627 1.0000);fill-opacity:1;"/>
<path id="Top" d="M16 0H44C46.2091 0 48 1.79086 48 4V32H16C7.16344 32 0 24.8366 0 16C0 7.16344 7.16344 0 16 0Z" fill="var(--fill-0, #3355FF)" style="fill:#3355FF;fill:color(display-p3 0.2000 0.3333 1.0000);fill-opacity:1;"/>
<path id="Mid" d="M48 32C48 23.1634 40.8366 16 32 16H0C0 24.8366 7.16344 32 16 32H48Z" fill="var(--fill-0, #2945CE)" style="fill:#2945CE;fill:color(display-p3 0.1608 0.2706 0.8078);fill-opacity:1;"/>
</g>
<defs>
<clipPath id="clip0_72270_189538">
<rect width="48" height="48" fill="white" style="fill:white;fill-opacity:1;"/>
</clipPath>
</defs>
</svg>
